<?xml version="1.0" encoding="UTF-8" standalone="no"?><!DOCTYPE svg PUBLIC "-//W3C//DTD SVG 1.1//EN" "http://www.w3.org/Graphics/SVG/1.1/DTD/svg11.dtd"><svg width="100%" height="100%" viewBox="0 0 800 800" version="1.1" xmlns="http://www.w3.org/2000/svg" xmlns:xlink="http://www.w3.org/1999/xlink" xml:space="preserve" xmlns:serif="http://www.serif.com/" style="fill-rule:evenodd;clip-rule:evenodd;stroke-linejoin:round;stroke-miterlimit:1.41421;"><path d="M648.547,102.797c84.915,71.105 138.953,177.893 138.953,297.203c0,213.867 -173.633,387.5 -387.5,387.5c-213.867,0 -387.5,-173.633 -387.5,-387.5c0,-113.865 49.218,-216.326 127.524,-287.248l43.185,66.332c-57.254,56.191 -92.79,134.437 -92.79,220.916c0,170.862 138.719,309.581 309.581,309.581c170.862,0 309.581,-138.719 309.581,-309.581c0,-90.502 -38.919,-171.986 -100.919,-228.613l39.885,-68.59Zm-60.982,104.87c50.046,48.814 81.138,116.971 81.138,192.333c0,148.301 -120.402,268.703 -268.703,268.703c-148.301,0 -268.703,-120.402 -268.703,-268.703c0,-72.091 28.452,-137.589 74.73,-185.868l77.961,119.748c-18.981,2.659 -38.788,1.995 -46.098,2.717c-35.936,3.55 -45.922,123.904 1.319,125.539c12.017,0.416 61.771,1.379 80.78,17.865c16.98,14.728 14.317,79.247 14.317,79.247c2.827,41.305 125.261,43.84 127.747,-0.122c1.043,-18.453 5.796,-65.064 17.938,-79.125c13.26,-15.354 72.825,-13.404 83.148,-17.556c44.72,-17.988 34.225,-125.316 -1.461,-124.129c-17.77,0.592 -34.118,1.142 -48.949,-1.954l74.836,-128.695Zm-187.565,272.334c44.154,0 80.001,-35.847 80.001,-80.001c0,-44.154 -35.847,-80.001 -80.001,-80.001c-44.154,0 -80.001,35.847 -80.001,80.001c0,44.154 35.847,80.001 80.001,80.001Zm-166.211,-291.078c45.745,-36.084 103.482,-57.626 166.211,-57.626c59.425,0 114.371,19.333 158.885,52.047l-79.263,136.308c-18.084,-17.317 -18.962,-77.708 -18.885,-82.452c0.491,-30.08 -101.37,-43.708 -123.331,-2.792c-4.704,8.763 0.202,67.271 -17.417,85.591c-0.171,0.177 -0.345,0.352 -0.523,0.525l-85.677,-131.601Zm-64.994,-99.83c64.557,-48.107 144.581,-76.593 231.205,-76.593c81.173,0 156.55,25.013 218.836,67.746l-39.301,67.587c-50.65,-36.143 -112.628,-57.414 -179.535,-57.414c-70.95,0 -136.358,23.919 -188.592,64.128l-42.613,-65.454Z" style="fill:#ef233c;"/></svg>