<?xml version="1.0" encoding="UTF-8" standalone="no"?><!DOCTYPE svg PUBLIC "-//W3C//DTD SVG 1.1//EN" "http://www.w3.org/Graphics/SVG/1.1/DTD/svg11.dtd"><svg width="100%" height="100%" viewBox="0 0 800 800" version="1.1" xmlns="http://www.w3.org/2000/svg" xmlns:xlink="http://www.w3.org/1999/xlink" xml:space="preserve" xmlns:serif="http://www.serif.com/" style="fill-rule:evenodd;clip-rule:evenodd;stroke-linejoin:round;stroke-miterlimit:1.41421;"><path d="M560.353,208.256c54.784,45.874 89.647,114.77 89.647,191.744c0,137.979 -112.021,250 -250,250c-137.979,0 -250,-112.021 -250,-250c0,-73.461 31.754,-139.565 82.273,-185.321l27.862,42.795c-36.938,36.252 -59.865,86.733 -59.865,142.526c0,110.234 89.496,199.73 199.73,199.73c110.234,0 199.73,-89.496 199.73,-199.73c0,-58.388 -25.109,-110.959 -65.11,-147.492l25.733,-44.252Zm-39.343,67.658c32.287,31.493 52.346,75.465 52.346,124.086c0,95.678 -77.678,173.356 -173.356,173.356c-95.678,0 -173.356,-77.678 -173.356,-173.356c0,-46.51 18.355,-88.767 48.212,-119.915l50.298,77.257c-12.246,1.716 -25.025,1.287 -29.741,1.753c-23.184,2.29 -29.627,79.938 0.851,80.993c7.753,0.268 39.852,0.889 52.116,11.526c10.955,9.501 9.237,51.127 9.237,51.127c1.823,26.648 80.813,28.284 82.417,-0.079c0.673,-11.905 3.74,-41.977 11.573,-51.048c8.555,-9.906 46.984,-8.648 53.644,-11.327c28.852,-11.605 22.08,-80.849 -0.943,-80.083c-11.464,0.382 -22.011,0.736 -31.58,-1.261l48.282,-83.029Zm-121.01,175.7c28.486,0 51.614,-23.128 51.614,-51.614c0,-28.486 -23.128,-51.614 -51.614,-51.614c-28.486,0 -51.614,23.128 -51.614,51.614c0,28.486 23.128,51.614 51.614,51.614Zm-107.233,-187.792c29.513,-23.281 66.763,-37.178 107.233,-37.178c38.339,0 73.788,12.472 102.506,33.578l-51.137,87.941c-11.667,-11.173 -12.234,-50.135 -12.184,-53.195c0.317,-19.407 -65.4,-28.199 -79.568,-1.802c-3.035,5.654 0.13,43.401 -11.237,55.22c-0.11,0.115 -0.222,0.228 -0.337,0.339l-55.276,-84.903Zm-41.932,-64.407c41.65,-31.037 93.278,-49.415 149.165,-49.415c52.37,0 101,16.138 141.185,43.707l-25.356,43.605c-32.677,-23.319 -72.663,-37.042 -115.829,-37.042c-45.774,0 -87.973,15.432 -121.672,41.373l-27.493,-42.228Z" style="fill:#111;"/></svg>